<?xml version="1.0" encoding="UTF-8" standalone="no"?>
<!DOCTYPE svg PUBLIC "-//W3C//DTD SVG 1.1//EN"
 "http://www.w3.org/Graphics/SVG/1.1/DTD/svg11.dtd">
<!-- Generated by graphviz version 2.43.0 (0)
 -->
<!-- Title: FeatureGraph Pages: 1 -->
<svg width="1474pt" height="841pt"
 viewBox="0.00 0.00 1474.00 841.00" xmlns="http://www.w3.org/2000/svg" xmlns:xlink="http://www.w3.org/1999/xlink">
<g id="graph0" class="graph" transform="scale(1 1) rotate(0) translate(4 837)">
<title>FeatureGraph</title>
<polygon fill="white" stroke="transparent" points="-4,4 -4,-837 1470,-837 1470,4 -4,4"/>
<g id="clust1" class="cluster">
<title>cluster_sensors</title>
<polygon fill="none" stroke="steelblue" stroke-dasharray="5,2" points="1356,-8 1356,-353 1458,-353 1458,-8 1356,-8"/>
<text text-anchor="middle" x="1407" y="-337.8" font-family="Times,serif" font-size="14.00">Sensors</text>
</g>
<g id="clust2" class="cluster">
<title>cluster_power</title>
<polygon fill="none" stroke="darkorange" stroke-dasharray="5,2" points="8,-750 8,-825 600,-825 600,-750 8,-750"/>
<text text-anchor="middle" x="304" y="-809.8" font-family="Times,serif" font-size="14.00">Power</text>
</g>
<g id="clust3" class="cluster">
<title>cluster_comms</title>
<polygon fill="none" stroke="mediumseagreen" stroke-dasharray="5,2" points="1187,-540 1187,-723 1287,-723 1287,-540 1187,-540"/>
<text text-anchor="middle" x="1237" y="-707.8" font-family="Times,serif" font-size="14.00">Comms</text>
</g>
<g id="clust4" class="cluster">
<title>cluster_flightmodes</title>
<polygon fill="none" stroke="mediumpurple" stroke-dasharray="5,2" points="14,-237 14,-488 1272,-488 1272,-237 14,-237"/>
<text text-anchor="middle" x="643" y="-472.8" font-family="Times,serif" font-size="14.00">Flight Modes (MutuallyExclusive)</text>
</g>
<g id="clust5" class="cluster">
<title>cluster_safety</title>
<polygon fill="none" stroke="crimson" stroke-dasharray="5,2" points="215,-505 215,-742 358,-742 358,-505 215,-505"/>
<text text-anchor="middle" x="286.5" y="-726.8" font-family="Times,serif" font-size="14.00">Safety</text>
</g>
<!-- IMU -->
<g id="node1" class="node">
<title>IMU</title>
<polygon fill="gray" stroke="black" points="1434,-214 1380,-214 1380,-178 1434,-178 1434,-214"/>
<text text-anchor="middle" x="1407" y="-192.9" font-family="Helvetica,sans-Serif" font-size="12.00">IMU</text>
</g>
<!-- GPS -->
<g id="node2" class="node">
<title>GPS</title>
<polygon fill="gray" stroke="black" points="1434,-322 1380,-322 1380,-286 1434,-286 1434,-322"/>
<text text-anchor="middle" x="1407" y="-300.9" font-family="Helvetica,sans-Serif" font-size="12.00">GPS</text>
</g>
<!-- Barometer -->
<g id="node3" class="node">
<title>Barometer</title>
<polygon fill="gray" stroke="black" points="1447.5,-268 1366.5,-268 1366.5,-232 1447.5,-232 1447.5,-268"/>
<text text-anchor="middle" x="1407" y="-246.9" font-family="Helvetica,sans-Serif" font-size="12.00">Barometer</text>
</g>
<!-- Compass -->
<g id="node4" class="node">
<title>Compass</title>
<polygon fill="gray" stroke="black" points="1442.5,-160 1371.5,-160 1371.5,-124 1442.5,-124 1442.5,-160"/>
<text text-anchor="middle" x="1407" y="-138.9" font-family="Helvetica,sans-Serif" font-size="12.00">Compass</text>
</g>
<!-- OpticalFlow -->
<g id="node5" class="node">
<title>OpticalFlow</title>
<polygon fill="gray" stroke="black" points="1450,-106 1364,-106 1364,-70 1450,-70 1450,-106"/>
<text text-anchor="middle" x="1407" y="-84.9" font-family="Helvetica,sans-Serif" font-size="12.00">OpticalFlow</text>
</g>
<!-- Lidar -->
<g id="node6" class="node">
<title>Lidar</title>
<polygon fill="gray" stroke="black" points="1434,-52 1380,-52 1380,-16 1434,-16 1434,-52"/>
<text text-anchor="middle" x="1407" y="-30.9" font-family="Helvetica,sans-Serif" font-size="12.00">Lidar</text>
</g>
<!-- BatteryMonitor -->
<g id="node7" class="node">
<title>BatteryMonitor</title>
<polygon fill="gray" stroke="black" points="592,-794 485,-794 485,-758 592,-758 592,-794"/>
<text text-anchor="middle" x="538.5" y="-772.9" font-family="Helvetica,sans-Serif" font-size="12.00">BatteryMonitor</text>
</g>
<!-- ESC -->
<g id="node8" class="node">
<title>ESC</title>
<polygon fill="gray" stroke="black" points="313.5,-794 259.5,-794 259.5,-758 313.5,-758 313.5,-794"/>
<text text-anchor="middle" x="286.5" y="-772.9" font-family="Helvetica,sans-Serif" font-size="12.00">ESC</text>
</g>
<!-- ESC&#45;&gt;BatteryMonitor -->
<g id="edge1" class="edge">
<title>ESC&#45;&gt;BatteryMonitor</title>
<path fill="none" stroke="black" d="M313.78,-776C351.63,-776 422.62,-776 474.51,-776"/>
<polygon fill="black" stroke="black" points="474.62,-779.5 484.62,-776 474.62,-772.5 474.62,-779.5"/>
<text text-anchor="middle" x="417.5" y="-779.2" font-family="Helvetica,sans-Serif" font-size="11.00">Requires</text>
</g>
<!-- MotorMix -->
<g id="node9" class="node">
<title>MotorMix</title>
<polygon fill="gray" stroke="black" points="88,-794 16,-794 16,-758 88,-758 88,-794"/>
<text text-anchor="middle" x="52" y="-772.9" font-family="Helvetica,sans-Serif" font-size="12.00">MotorMix</text>
</g>
<!-- MotorMix&#45;&gt;ESC -->
<g id="edge2" class="edge">
<title>MotorMix&#45;&gt;ESC</title>
<path fill="none" stroke="black" d="M88.06,-776C131.42,-776 204.89,-776 248.93,-776"/>
<polygon fill="black" stroke="black" points="249.19,-779.5 259.19,-776 249.19,-772.5 249.19,-779.5"/>
<text text-anchor="middle" x="155.5" y="-779.2" font-family="Helvetica,sans-Serif" font-size="11.00">Requires</text>
</g>
<!-- RCReceiver -->
<g id="node10" class="node">
<title>RCReceiver</title>
<polygon fill="gray" stroke="black" points="1279,-692 1195,-692 1195,-656 1279,-656 1279,-692"/>
<text text-anchor="middle" x="1237" y="-670.9" font-family="Helvetica,sans-Serif" font-size="12.00">RCReceiver</text>
</g>
<!-- Telemetry -->
<g id="node11" class="node">
<title>Telemetry</title>
<polygon fill="gray" stroke="black" points="1275,-638 1199,-638 1199,-602 1275,-602 1275,-638"/>
<text text-anchor="middle" x="1237" y="-616.9" font-family="Helvetica,sans-Serif" font-size="12.00">Telemetry</text>
</g>
<!-- Datalink -->
<g id="node12" class="node">
<title>Datalink</title>
<polygon fill="gray" stroke="black" points="1269.5,-584 1204.5,-584 1204.5,-548 1269.5,-548 1269.5,-584"/>
<text text-anchor="middle" x="1237" y="-562.9" font-family="Helvetica,sans-Serif" font-size="12.00">Datalink</text>
</g>
<!-- Manual -->
<g id="node13" class="node">
<title>Manual</title>
<polygon fill="gray" stroke="black" points="82,-426 22,-426 22,-390 82,-390 82,-426"/>
<text text-anchor="middle" x="52" y="-404.9" font-family="Helvetica,sans-Serif" font-size="12.00">Manual</text>
</g>
<!-- Stabilize -->
<g id="node14" class="node">
<title>Stabilize</title>
<polygon fill="gray" stroke="black" points="319.5,-352 253.5,-352 253.5,-316 319.5,-316 319.5,-352"/>
<text text-anchor="middle" x="286.5" y="-330.9" font-family="Helvetica,sans-Serif" font-size="12.00">Stabilize</text>
</g>
<!-- Manual&#45;&gt;Stabilize -->
<g id="edge21" class="edge">
<title>Manual&#45;&gt;Stabilize</title>
<path fill="none" stroke="mediumpurple" stroke-dasharray="5,2" d="M77.34,-389.84C86.03,-384.07 96.11,-378.12 106,-374 150.99,-355.25 206.15,-344.64 243.35,-339.13"/>
<polygon fill="mediumpurple" stroke="mediumpurple" points="243.94,-342.58 253.35,-337.71 242.95,-335.65 243.94,-342.58"/>
<text text-anchor="middle" x="155.5" y="-377.2" font-family="Helvetica,sans-Serif" font-size="11.00">MutuallyExclusive</text>
</g>
<!-- AltHold -->
<g id="node15" class="node">
<title>AltHold</title>
<polygon fill="gray" stroke="black" points="568,-389 509,-389 509,-353 568,-353 568,-389"/>
<text text-anchor="middle" x="538.5" y="-367.9" font-family="Helvetica,sans-Serif" font-size="12.00">AltHold</text>
</g>
<!-- Manual&#45;&gt;AltHold -->
<g id="edge22" class="edge">
<title>Manual&#45;&gt;AltHold</title>
<path fill="none" stroke="mediumpurple" stroke-dasharray="5,2" d="M82.03,-401.18C89.78,-399.57 98.17,-398.03 106,-397 265.33,-375.95 306.62,-386.35 467,-376 477.18,-375.34 488.18,-374.59 498.4,-373.86"/>
<polygon fill="mediumpurple" stroke="mediumpurple" points="498.97,-377.33 508.69,-373.13 498.47,-370.35 498.97,-377.33"/>
<text text-anchor="middle" x="286.5" y="-388.2" font-family="Helvetica,sans-Serif" font-size="11.00">MutuallyExclusive</text>
</g>
<!-- PosHold -->
<g id="node16" class="node">
<title>PosHold</title>
<polygon fill="gray" stroke="black" points="808.5,-281 744.5,-281 744.5,-245 808.5,-245 808.5,-281"/>
<text text-anchor="middle" x="776.5" y="-259.9" font-family="Helvetica,sans-Serif" font-size="12.00">PosHold</text>
</g>
<!-- Manual&#45;&gt;PosHold -->
<g id="edge23" class="edge">
<title>Manual&#45;&gt;PosHold</title>
<path fill="none" stroke="mediumpurple" stroke-dasharray="5,2" d="M63.39,-389.85C72.76,-375 87.84,-354.49 106,-342 147.92,-313.17 166.1,-321.07 215,-307 282.44,-287.6 298.76,-279.4 368,-268 419.46,-259.53 432.91,-261.63 485,-259 540.5,-256.2 554.43,-256.67 610,-256 654,-255.47 665.06,-253.69 709,-256 717.24,-256.43 726.03,-257.16 734.44,-258"/>
<polygon fill="mediumpurple" stroke="mediumpurple" points="734.12,-261.48 744.43,-259.05 734.85,-254.52 734.12,-261.48"/>
<text text-anchor="middle" x="417.5" y="-271.2" font-family="Helvetica,sans-Serif" font-size="11.00">MutuallyExclusive</text>
</g>
<!-- Autonomous -->
<g id="node17" class="node">
<title>Autonomous</title>
<polygon fill="gray" stroke="black" points="1056.5,-434 964.5,-434 964.5,-398 1056.5,-398 1056.5,-434"/>
<text text-anchor="middle" x="1010.5" y="-412.9" font-family="Helvetica,sans-Serif" font-size="12.00">Autonomous</text>
</g>
<!-- Manual&#45;&gt;Autonomous -->
<g id="edge24" class="edge">
<title>Manual&#45;&gt;Autonomous</title>
<path fill="none" stroke="mediumpurple" stroke-dasharray="5,2" d="M82.05,-413.84C89.8,-415.15 98.19,-416.34 106,-417 149.84,-420.7 161,-417.03 205,-417 486.49,-416.83 823.39,-416.31 953.99,-416.09"/>
<polygon fill="mediumpurple" stroke="mediumpurple" points="954.14,-419.59 964.14,-416.08 954.13,-412.59 954.14,-419.59"/>
<text text-anchor="middle" x="538.5" y="-419.2" font-family="Helvetica,sans-Serif" font-size="11.00">MutuallyExclusive</text>
</g>
<!-- RTL -->
<g id="node18" class="node">
<title>RTL</title>
<polygon fill="gray" stroke="black" points="1264,-457 1210,-457 1210,-421 1264,-421 1264,-457"/>
<text text-anchor="middle" x="1237" y="-435.9" font-family="Helvetica,sans-Serif" font-size="12.00">RTL</text>
</g>
<!-- Manual&#45;&gt;RTL -->
<g id="edge25" class="edge">
<title>Manual&#45;&gt;RTL</title>
<path fill="none" stroke="mediumpurple" stroke-dasharray="5,2" d="M82.19,-417C89.86,-419.01 98.18,-420.88 106,-422 319.89,-452.69 861.94,-445.11 1078,-448 1122,-448.59 1133.13,-451.33 1177,-448 1184.46,-447.43 1192.4,-446.47 1199.96,-445.38"/>
<polygon fill="mediumpurple" stroke="mediumpurple" points="1200.61,-448.82 1209.96,-443.84 1199.54,-441.91 1200.61,-448.82"/>
<text text-anchor="middle" x="659.5" y="-449.2" font-family="Helvetica,sans-Serif" font-size="11.00">MutuallyExclusive</text>
</g>
<!-- Stabilize&#45;&gt;IMU -->
<g id="edge5" class="edge">
<title>Stabilize&#45;&gt;IMU</title>
<path fill="none" stroke="black" d="M287.5,-315.95C288.5,-268.45 297.87,-138.77 368,-68 423.56,-11.93 458.57,-15 537.5,-15 537.5,-15 537.5,-15 1238,-15 1315.19,-15 1303.11,-86.83 1346,-151 1351.08,-158.61 1349.49,-162.57 1356,-169 1360.36,-173.31 1365.55,-177.12 1370.91,-180.41"/>
<polygon fill="black" stroke="black" points="1369.54,-183.65 1379.97,-185.48 1372.95,-177.54 1369.54,-183.65"/>
<text text-anchor="middle" x="893.5" y="-18.2" font-family="Helvetica,sans-Serif" font-size="11.00">Requires</text>
</g>
<!-- Stabilize&#45;&gt;Barometer -->
<g id="edge6" class="edge">
<title>Stabilize&#45;&gt;Barometer</title>
<path fill="none" stroke="black" d="M293.42,-315.99C315.07,-253.98 396.13,-53 537.5,-53 537.5,-53 537.5,-53 894.5,-53 1105.81,-53 1192.23,-57.06 1346,-202 1353.52,-209.09 1348.88,-215.51 1356,-223 1356.88,-223.93 1357.8,-224.83 1358.75,-225.7"/>
<polygon fill="black" stroke="black" points="1356.57,-228.44 1366.57,-231.94 1360.94,-222.97 1356.57,-228.44"/>
<text text-anchor="middle" x="893.5" y="-56.2" font-family="Helvetica,sans-Serif" font-size="11.00">Requires</text>
</g>
<!-- Stabilize&#45;&gt;AltHold -->
<g id="edge26" class="edge">
<title>Stabilize&#45;&gt;AltHold</title>
<path fill="none" stroke="mediumpurple" stroke-dasharray="5,2" d="M319.67,-338.76C365.59,-345.56 449.81,-358.02 498.99,-365.3"/>
<polygon fill="mediumpurple" stroke="mediumpurple" points="498.52,-368.77 508.93,-366.77 499.55,-361.85 498.52,-368.77"/>
<text text-anchor="middle" x="417.5" y="-363.2" font-family="Helvetica,sans-Serif" font-size="11.00">MutuallyExclusive</text>
</g>
<!-- Stabilize&#45;&gt;PosHold -->
<g id="edge27" class="edge">
<title>Stabilize&#45;&gt;PosHold</title>
<path fill="none" stroke="mediumpurple" stroke-dasharray="5,2" d="M319.78,-323.09C334.4,-318.38 351.96,-313.03 368,-309 474.25,-282.27 500.94,-272.49 610,-262 653.8,-257.79 665,-261.67 709,-262 717.12,-262.06 725.79,-262.16 734.11,-262.28"/>
<polygon fill="mediumpurple" stroke="mediumpurple" points="734.32,-265.78 744.38,-262.44 734.43,-258.79 734.32,-265.78"/>
<text text-anchor="middle" x="538.5" y="-282.2" font-family="Helvetica,sans-Serif" font-size="11.00">MutuallyExclusive</text>
</g>
<!-- Stabilize&#45;&gt;Autonomous -->
<g id="edge28" class="edge">
<title>Stabilize&#45;&gt;Autonomous</title>
<path fill="none" stroke="mediumpurple" stroke-dasharray="5,2" d="M319.62,-331.48C355.56,-329.04 415.49,-326.1 467,-329 526.39,-332.34 541.04,-336.08 600,-344 701.18,-357.59 726.17,-363.67 826,-385 834.01,-386.71 835.91,-387.7 844,-389 887.66,-396.03 899.46,-391.28 943,-399 946.68,-399.65 950.45,-400.4 954.24,-401.21"/>
<polygon fill="mediumpurple" stroke="mediumpurple" points="953.74,-404.68 964.27,-403.47 955.28,-397.86 953.74,-404.68"/>
<text text-anchor="middle" x="659.5" y="-363.2" font-family="Helvetica,sans-Serif" font-size="11.00">MutuallyExclusive</text>
</g>
<!-- Stabilize&#45;&gt;RTL -->
<g id="edge29" class="edge">
<title>Stabilize&#45;&gt;RTL</title>
<path fill="none" stroke="mediumpurple" stroke-dasharray="5,2" d="M319.77,-334.06C390.36,-334.08 563.81,-333.62 709,-329 769.05,-327.09 783.94,-323.56 844,-322 887.99,-320.86 902.58,-304.61 943,-322 953.69,-326.6 950.87,-335.29 961,-341 1046.58,-389.25 1100.56,-326.28 1177,-388 1185.36,-394.75 1179.83,-402.01 1187,-410 1191.06,-414.52 1196,-418.55 1201.16,-422.05"/>
<polygon fill="mediumpurple" stroke="mediumpurple" points="1199.58,-425.19 1209.93,-427.45 1203.25,-419.23 1199.58,-425.19"/>
<text text-anchor="middle" x="776.5" y="-331.2" font-family="Helvetica,sans-Serif" font-size="11.00">MutuallyExclusive</text>
</g>
<!-- AltHold&#45;&gt;IMU -->
<g id="edge7" class="edge">
<title>AltHold&#45;&gt;IMU</title>
<path fill="none" stroke="black" d="M558.79,-352.98C572.76,-338.69 590.75,-317.45 600,-295 607.75,-276.19 595.68,-218.45 610,-204 820.68,8.72 1244.81,-132.85 1370.27,-181.42"/>
<polygon fill="black" stroke="black" points="1369.2,-184.76 1379.79,-185.15 1371.76,-178.24 1369.2,-184.76"/>
<text text-anchor="middle" x="1010.5" y="-102.2" font-family="Helvetica,sans-Serif" font-size="11.00">Requires</text>
</g>
<!-- AltHold&#45;&gt;Barometer -->
<g id="edge8" class="edge">
<title>AltHold&#45;&gt;Barometer</title>
<path fill="none" stroke="black" d="M557.45,-352.79C570.89,-338.24 588.81,-316.74 600,-295 607.4,-280.62 598.41,-271.28 610,-260 686.95,-185.13 737.89,-216.39 844,-200 990.38,-177.39 1029.66,-171.9 1177,-187 1253.31,-194.82 1273.2,-197.84 1346,-222 1351.11,-223.7 1356.37,-225.71 1361.54,-227.87"/>
<polygon fill="black" stroke="black" points="1360.14,-231.08 1370.7,-231.87 1362.94,-224.66 1360.14,-231.08"/>
<text text-anchor="middle" x="1010.5" y="-186.2" font-family="Helvetica,sans-Serif" font-size="11.00">Requires</text>
</g>
<!-- AltHold&#45;&gt;PosHold -->
<g id="edge30" class="edge">
<title>AltHold&#45;&gt;PosHold</title>
<path fill="none" stroke="mediumpurple" stroke-dasharray="5,2" d="M556.32,-352.74C568.98,-338.58 586.43,-318.2 600,-299 605.06,-291.84 602.65,-286.78 610,-282 629.88,-269.07 692.19,-264.91 734.43,-263.59"/>
<polygon fill="mediumpurple" stroke="mediumpurple" points="734.53,-267.09 744.43,-263.32 734.34,-260.09 734.53,-267.09"/>
<text text-anchor="middle" x="659.5" y="-285.2" font-family="Helvetica,sans-Serif" font-size="11.00">MutuallyExclusive</text>
</g>
<!-- AltHold&#45;&gt;Autonomous -->
<g id="edge31" class="edge">
<title>AltHold&#45;&gt;Autonomous</title>
<path fill="none" stroke="mediumpurple" stroke-dasharray="5,2" d="M568.19,-373.75C644.52,-381.05 853.54,-401.07 954.07,-410.69"/>
<polygon fill="mediumpurple" stroke="mediumpurple" points="954.04,-414.21 964.32,-411.67 954.7,-407.24 954.04,-414.21"/>
<text text-anchor="middle" x="776.5" y="-400.2" font-family="Helvetica,sans-Serif" font-size="11.00">MutuallyExclusive</text>
</g>
<!-- AltHold&#45;&gt;RTL -->
<g id="edge32" class="edge">
<title>AltHold&#45;&gt;RTL</title>
<path fill="none" stroke="mediumpurple" stroke-dasharray="5,2" d="M568.2,-369.72C647.18,-366.68 874.22,-361.25 1060,-389 1109.61,-396.41 1164.98,-413.7 1200.13,-425.87"/>
<polygon fill="mediumpurple" stroke="mediumpurple" points="1199.33,-429.3 1209.93,-429.31 1201.65,-422.69 1199.33,-429.3"/>
<text text-anchor="middle" x="893.5" y="-378.2" font-family="Helvetica,sans-Serif" font-size="11.00">MutuallyExclusive</text>
</g>
<!-- PosHold&#45;&gt;IMU -->
<g id="edge9" class="edge">
<title>PosHold&#45;&gt;IMU</title>
<path fill="none" stroke="black" d="M808.75,-244.85C819.6,-239.27 832.04,-233.65 844,-230 1037.11,-171.07 1095.11,-197.38 1297,-196 1321.12,-195.83 1348.24,-195.83 1369.4,-195.88"/>
<polygon fill="black" stroke="black" points="1369.56,-199.38 1379.57,-195.9 1369.58,-192.38 1369.56,-199.38"/>
<text text-anchor="middle" x="1127.5" y="-196.2" font-family="Helvetica,sans-Serif" font-size="11.00">Requires</text>
</g>
<!-- PosHold&#45;&gt;GPS -->
<g id="edge11" class="edge">
<title>PosHold&#45;&gt;GPS</title>
<path fill="none" stroke="black" d="M808.73,-264.62C842.09,-266.58 896.45,-270.48 943,-277 995.48,-284.36 1008.24,-288.6 1060,-300 1184.86,-327.5 1220.99,-357.83 1346,-331 1354.26,-329.23 1362.75,-326.23 1370.65,-322.85"/>
<polygon fill="black" stroke="black" points="1372.3,-325.95 1379.95,-318.62 1369.4,-319.58 1372.3,-325.95"/>
<text text-anchor="middle" x="1127.5" y="-333.2" font-family="Helvetica,sans-Serif" font-size="11.00">Requires</text>
</g>
<!-- PosHold&#45;&gt;Barometer -->
<g id="edge10" class="edge">
<title>PosHold&#45;&gt;Barometer</title>
<path fill="none" stroke="black" d="M808.82,-255.58C819.88,-253.18 832.44,-250.7 844,-249 1039.07,-220.24 1090.88,-204.62 1287,-225 1310.11,-227.4 1335.35,-232.36 1356.61,-237.23"/>
<polygon fill="black" stroke="black" points="1355.85,-240.65 1366.39,-239.53 1357.45,-233.83 1355.85,-240.65"/>
<text text-anchor="middle" x="1127.5" y="-220.2" font-family="Helvetica,sans-Serif" font-size="11.00">Requires</text>
</g>
<!-- PosHold&#45;&gt;Autonomous -->
<g id="edge33" class="edge">
<title>PosHold&#45;&gt;Autonomous</title>
<path fill="none" stroke="mediumpurple" stroke-dasharray="5,2" d="M807.61,-281.14C813.9,-285.4 820.34,-290.13 826,-295 835.06,-302.8 833.82,-308.73 844,-315 882.83,-338.92 904.18,-318.07 943,-342 962.48,-354.01 979.6,-373.4 991.6,-389.32"/>
<polygon fill="mediumpurple" stroke="mediumpurple" points="989,-391.71 997.71,-397.74 994.67,-387.6 989,-391.71"/>
<text text-anchor="middle" x="893.5" y="-345.2" font-family="Helvetica,sans-Serif" font-size="11.00">MutuallyExclusive</text>
</g>
<!-- PosHold&#45;&gt;RTL -->
<g id="edge34" class="edge">
<title>PosHold&#45;&gt;RTL</title>
<path fill="none" stroke="mediumpurple" stroke-dasharray="5,2" d="M808.66,-269.69C900.39,-289.51 1163.93,-347.41 1177,-361 1192.41,-377.02 1174.11,-391.9 1187,-410 1190.76,-415.28 1195.82,-419.76 1201.25,-423.51"/>
<polygon fill="mediumpurple" stroke="mediumpurple" points="1199.61,-426.6 1209.98,-428.79 1203.24,-420.62 1199.61,-426.6"/>
<text text-anchor="middle" x="1010.5" y="-328.2" font-family="Helvetica,sans-Serif" font-size="11.00">MutuallyExclusive</text>
</g>
<!-- Autonomous&#45;&gt;IMU -->
<g id="edge12" class="edge">
<title>Autonomous&#45;&gt;IMU</title>
<path fill="none" stroke="black" d="M1023.77,-397.99C1036.12,-380.73 1056.38,-354.62 1078,-336 1116.98,-302.42 1141.73,-313.46 1177,-276 1183.54,-269.05 1179.57,-262.99 1187,-257 1240.54,-213.79 1322.71,-201.14 1369.69,-197.47"/>
<polygon fill="black" stroke="black" points="1369.98,-200.96 1379.72,-196.78 1369.5,-193.98 1369.98,-200.96"/>
<text text-anchor="middle" x="1237" y="-260.2" font-family="Helvetica,sans-Serif" font-size="11.00">Requires</text>
</g>
<!-- Autonomous&#45;&gt;GPS -->
<g id="edge14" class="edge">
<title>Autonomous&#45;&gt;GPS</title>
<path fill="none" stroke="black" d="M1056.71,-411.5C1135.83,-403.09 1295.74,-383.61 1346,-359 1360.4,-351.95 1373.82,-340.34 1384.3,-329.61"/>
<polygon fill="black" stroke="black" points="1387.12,-331.72 1391.39,-322.02 1382,-326.94 1387.12,-331.72"/>
<text text-anchor="middle" x="1237" y="-397.2" font-family="Helvetica,sans-Serif" font-size="11.00">Requires</text>
</g>
<!-- Autonomous&#45;&gt;Barometer -->
<g id="edge13" class="edge">
<title>Autonomous&#45;&gt;Barometer</title>
<path fill="none" stroke="black" d="M1054.47,-397.82C1110.35,-373.27 1209.92,-326.39 1287,-273 1291.92,-269.6 1291.57,-266.49 1297,-264 1315.3,-255.6 1337.03,-251.75 1356.26,-250.12"/>
<polygon fill="black" stroke="black" points="1356.61,-253.6 1366.35,-249.44 1356.14,-246.62 1356.61,-253.6"/>
<text text-anchor="middle" x="1237" y="-334.2" font-family="Helvetica,sans-Serif" font-size="11.00">Requires</text>
</g>
<!-- Autonomous&#45;&gt;Datalink -->
<g id="edge15" class="edge">
<title>Autonomous&#45;&gt;Datalink</title>
<path fill="none" stroke="black" d="M1038.58,-434.09C1079.03,-461.12 1155.29,-512.07 1200.27,-542.12"/>
<polygon fill="black" stroke="black" points="1198.56,-545.2 1208.82,-547.84 1202.45,-539.38 1198.56,-545.2"/>
<text text-anchor="middle" x="1127.5" y="-528.2" font-family="Helvetica,sans-Serif" font-size="11.00">Requires</text>
</g>
<!-- Autonomous&#45;&gt;RTL -->
<g id="edge35" class="edge">
<title>Autonomous&#45;&gt;RTL</title>
<path fill="none" stroke="mediumpurple" stroke-dasharray="5,2" d="M1056.66,-420.63C1098.68,-424.93 1160.5,-431.27 1199.49,-435.26"/>
<polygon fill="mediumpurple" stroke="mediumpurple" points="1199.54,-438.78 1209.84,-436.32 1200.25,-431.82 1199.54,-438.78"/>
<text text-anchor="middle" x="1127.5" y="-435.2" font-family="Helvetica,sans-Serif" font-size="11.00">MutuallyExclusive</text>
</g>
<!-- CollisionAvoidance -->
<g id="node21" class="node">
<title>CollisionAvoidance</title>
<polygon fill="gray" stroke="black" points="350,-603 223,-603 223,-567 350,-567 350,-603"/>
<text text-anchor="middle" x="286.5" y="-581.9" font-family="Helvetica,sans-Serif" font-size="12.00">CollisionAvoidance</text>
</g>
<!-- Autonomous&#45;&gt;CollisionAvoidance -->
<g id="edge16" class="edge">
<title>Autonomous&#45;&gt;CollisionAvoidance</title>
<path fill="none" stroke="black" d="M1008.07,-434.18C1004.26,-469.35 990.62,-546.61 943,-585 893.15,-625.18 426.55,-648.9 368,-623 361.96,-620.33 363.46,-615.73 358,-612 355.87,-610.54 353.65,-609.15 351.37,-607.82"/>
<polygon fill="black" stroke="black" points="352.78,-604.61 342.31,-603.01 349.49,-610.79 352.78,-604.61"/>
<text text-anchor="middle" x="659.5" y="-634.2" font-family="Helvetica,sans-Serif" font-size="11.00">Requires</text>
</g>
<!-- Autonomous&#45;&gt;CollisionAvoidance -->
<g id="edge17" class="edge">
<title>Autonomous&#45;&gt;CollisionAvoidance</title>
<path fill="none" stroke="black" stroke-dasharray="5,2" d="M991.2,-434.1C978.6,-445.62 960.96,-460.02 943,-469 748.27,-566.44 683.39,-560.72 467,-585 432.21,-588.9 393.39,-589.38 360.77,-588.69"/>
<polygon fill="black" stroke="black" points="350.41,-588.42 360.52,-584.18 355.41,-588.55 360.41,-588.68 360.41,-588.68 360.41,-588.68 355.41,-588.55 360.29,-593.18 350.41,-588.42 350.41,-588.42"/>
<text text-anchor="middle" x="659.5" y="-572.2" font-family="Helvetica,sans-Serif" font-size="11.00">Implies</text>
</g>
<!-- RTL&#45;&gt;IMU -->
<g id="edge18" class="edge">
<title>RTL&#45;&gt;IMU</title>
<path fill="none" stroke="black" d="M1264.12,-427.87C1272.86,-422.8 1281.71,-415.91 1287,-407 1301.34,-382.85 1285.12,-306.45 1297,-281 1311.73,-249.43 1344.81,-226.33 1370.68,-212.25"/>
<polygon fill="black" stroke="black" points="1372.6,-215.2 1379.84,-207.47 1369.36,-208.99 1372.6,-215.2"/>
<text text-anchor="middle" x="1321.5" y="-284.2" font-family="Helvetica,sans-Serif" font-size="11.00">Requires</text>
</g>
<!-- RTL&#45;&gt;GPS -->
<g id="edge20" class="edge">
<title>RTL&#45;&gt;GPS</title>
<path fill="none" stroke="black" d="M1264.01,-436.13C1287.56,-432.39 1322.12,-423.92 1346,-405 1370.09,-385.92 1386.61,-354.3 1396.13,-331.52"/>
<polygon fill="black" stroke="black" points="1399.45,-332.64 1399.89,-322.06 1392.94,-330.06 1399.45,-332.64"/>
<text text-anchor="middle" x="1321.5" y="-431.2" font-family="Helvetica,sans-Serif" font-size="11.00">Requires</text>
</g>
<!-- RTL&#45;&gt;Barometer -->
<g id="edge19" class="edge">
<title>RTL&#45;&gt;Barometer</title>
<path fill="none" stroke="black" d="M1264.04,-425.4C1272.06,-420.37 1280.49,-414.13 1287,-407 1289.36,-404.42 1344.37,-299.09 1346,-296 1350.46,-287.56 1349.29,-283.78 1356,-277 1356.92,-276.07 1357.87,-275.17 1358.86,-274.29"/>
<polygon fill="black" stroke="black" points="1361.2,-276.91 1366.96,-268.01 1356.91,-271.37 1361.2,-276.91"/>
<text text-anchor="middle" x="1321.5" y="-390.2" font-family="Helvetica,sans-Serif" font-size="11.00">Requires</text>
</g>
<!-- Geofence -->
<g id="node19" class="node">
<title>Geofence</title>
<polygon fill="gray" stroke="black" points="323.5,-711 249.5,-711 249.5,-675 323.5,-675 323.5,-711"/>
<text text-anchor="middle" x="286.5" y="-689.9" font-family="Helvetica,sans-Serif" font-size="12.00">Geofence</text>
</g>
<!-- Failsafe -->
<g id="node20" class="node">
<title>Failsafe</title>
<polygon fill="gray" stroke="black" points="317.5,-657 255.5,-657 255.5,-621 317.5,-621 317.5,-657"/>
<text text-anchor="middle" x="286.5" y="-635.9" font-family="Helvetica,sans-Serif" font-size="12.00">Failsafe</text>
</g>
<!-- Failsafe&#45;&gt;BatteryMonitor -->
<g id="edge3" class="edge">
<title>Failsafe&#45;&gt;BatteryMonitor</title>
<path fill="none" stroke="black" d="M317.84,-643.67C332.02,-647.39 347.96,-654.06 358,-666 372.87,-683.68 352.86,-699.55 368,-717 382.49,-733.7 433.02,-750.02 475.17,-761.25"/>
<polygon fill="black" stroke="black" points="474.29,-764.63 484.85,-763.78 476.06,-757.86 474.29,-764.63"/>
<text text-anchor="middle" x="417.5" y="-760.2" font-family="Helvetica,sans-Serif" font-size="11.00">Requires</text>
</g>
<!-- Failsafe&#45;&gt;RCReceiver -->
<g id="edge4" class="edge">
<title>Failsafe&#45;&gt;RCReceiver</title>
<path fill="none" stroke="black" d="M317.61,-648.72C374.13,-666.62 494.27,-703 537.5,-703 537.5,-703 537.5,-703 1011.5,-703 1071.42,-703 1139.6,-692.71 1184.95,-684.39"/>
<polygon fill="black" stroke="black" points="1185.64,-687.82 1194.83,-682.54 1184.36,-680.94 1185.64,-687.82"/>
<text text-anchor="middle" x="776.5" y="-706.2" font-family="Helvetica,sans-Serif" font-size="11.00">Requires</text>
</g>
<!-- EmergencyStop -->
<g id="node22" class="node">
<title>EmergencyStop</title>
<polygon fill="gray" stroke="black" points="342,-549 231,-549 231,-513 342,-513 342,-549"/>
<text text-anchor="middle" x="286.5" y="-527.9" font-family="Helvetica,sans-Serif" font-size="12.00">EmergencyStop</text>
</g>
<!-- EmergencyStop&#45;&gt;Manual -->
<g id="edge36" class="edge">
<title>EmergencyStop&#45;&gt;Manual</title>
<path fill="none" stroke="crimson" d="M230.62,-513.04C193.86,-499.77 145.21,-479.74 106,-455 96.13,-448.77 86.29,-440.7 77.81,-433"/>
<polygon fill="crimson" stroke="crimson" points="80.15,-430.39 70.46,-426.11 75.36,-435.5 80.15,-430.39"/>
<text text-anchor="middle" x="155.5" y="-504.2" font-family="Helvetica,sans-Serif" font-size="11.00" fill="crimson">Preempts</text>
</g>
<!-- EmergencyStop&#45;&gt;Stabilize -->
<g id="edge37" class="edge">
<title>EmergencyStop&#45;&gt;Stabilize</title>
<path fill="none" stroke="crimson" d="M240.68,-512.84C190.44,-490.06 120.61,-448.23 150,-401 170.26,-368.44 211.49,-351.26 243.36,-342.49"/>
<polygon fill="crimson" stroke="crimson" points="244.52,-345.8 253.34,-339.92 242.78,-339.02 244.52,-345.8"/>
<text text-anchor="middle" x="155.5" y="-404.2" font-family="Helvetica,sans-Serif" font-size="11.00" fill="crimson">Preempts</text>
</g>
<!-- EmergencyStop&#45;&gt;AltHold -->
<g id="edge38" class="edge">
<title>EmergencyStop&#45;&gt;AltHold</title>
<path fill="none" stroke="crimson" d="M328.81,-512.94C339.1,-507.21 349.58,-500.2 358,-492 364.28,-485.88 361.86,-481.26 368,-475 410.74,-431.4 432.93,-434.89 485,-403 489.96,-399.96 495.18,-396.77 500.33,-393.63"/>
<polygon fill="crimson" stroke="crimson" points="502.16,-396.61 508.88,-388.42 498.52,-390.64 502.16,-396.61"/>
<text text-anchor="middle" x="417.5" y="-478.2" font-family="Helvetica,sans-Serif" font-size="11.00" fill="crimson">Preempts</text>
</g>
<!-- EmergencyStop&#45;&gt;PosHold -->
<g id="edge39" class="edge">
<title>EmergencyStop&#45;&gt;PosHold</title>
<path fill="none" stroke="crimson" d="M342.06,-522.81C454.63,-505.8 702.7,-467.66 709,-461 734.48,-434.03 707.68,-326.68 727,-295 729.53,-290.86 732.82,-287.14 736.49,-283.84"/>
<polygon fill="crimson" stroke="crimson" points="738.72,-286.54 744.46,-277.64 734.42,-281.02 738.72,-286.54"/>
<text text-anchor="middle" x="538.5" y="-503.2" font-family="Helvetica,sans-Serif" font-size="11.00" fill="crimson">Preempts</text>
</g>
<!-- EmergencyStop&#45;&gt;Autonomous -->
<g id="edge40" class="edge">
<title>EmergencyStop&#45;&gt;Autonomous</title>
<path fill="none" stroke="crimson" d="M342.22,-531.14C404.81,-530.65 510.21,-527.89 600,-516 754.7,-495.52 793.36,-485.24 943,-441 946.82,-439.87 950.73,-438.63 954.65,-437.32"/>
<polygon fill="crimson" stroke="crimson" points="956.06,-440.54 964.37,-433.96 953.77,-433.92 956.06,-440.54"/>
<text text-anchor="middle" x="659.5" y="-517.2" font-family="Helvetica,sans-Serif" font-size="11.00" fill="crimson">Preempts</text>
</g>
<!-- EmergencyStop&#45;&gt;RTL -->
<g id="edge41" class="edge">
<title>EmergencyStop&#45;&gt;RTL</title>
<path fill="none" stroke="crimson" d="M342.37,-540.29C350.93,-541.41 359.69,-542.38 368,-543 411.88,-546.25 423,-543.06 467,-543 782.56,-542.56 903.88,-699.05 1177,-541 1204.27,-525.22 1220.08,-491.51 1228.35,-467.16"/>
<polygon fill="crimson" stroke="crimson" points="1231.77,-467.96 1231.45,-457.37 1225.09,-465.85 1231.77,-467.96"/>
<text text-anchor="middle" x="776.5" y="-601.2" font-family="Helvetica,sans-Serif" font-size="11.00" fill="crimson">Preempts</text>
</g>
</g>
</svg>
